name rise30.9205peak61.366fall85.3838.mot
datacolumns 19
datarows 20
range 14.88160700000000 14.91327500000000
endheader
time	ground_force1_vx	ground_force1_vy	ground_force1_vz	ground_force1_px	ground_force1_py	ground_force1_pz	ground_force2_vx	ground_force2_vy	ground_force2_vz	ground_force2_px	ground_force2_py	ground_force2_pz	ground_torque1_x	ground_torque1_y	ground_torque1_z	ground_torque2_x	ground_torque2_y	ground_torque2_z	
14.88160700000000	-10.59750800000000	41.78932700000000	-7.59881000000000	0.34627800000000	0.00000000000000	0.08442700000000	-48.66945300000000	777.32360200000005	-51.06572800000000	0.14927600000000	0.00000000000000	-0.09248600000000	0.00000000000000	-5.03475900000000	0.00000000000000	0.00000000000000	-21.87153500000000	0.00000000000000	
14.88327900000000	-11.68107500000000	48.85925300000000	-8.51353800000000	0.35039600000000	0.00000000000000	0.08543100000000	-49.36562200000000	774.81389300000001	-50.81938700000000	0.14820200000000	0.00000000000000	-0.09250400000000	0.00000000000000	-5.68798900000000	0.00000000000000	0.00000000000000	-21.83073000000000	0.00000000000000	
14.88494500000000	-12.58206600000000	55.98753300000000	-9.33335500000000	0.35427400000000	0.00000000000000	0.08633300000000	-50.06922600000000	772.22139600000003	-50.56373200000000	0.14713300000000	0.00000000000000	-0.09252000000000	0.00000000000000	-6.28957800000000	0.00000000000000	0.00000000000000	-21.79151300000000	0.00000000000000	
14.88662200000000	-13.27264000000000	63.08030800000000	-10.03807600000000	0.35794300000000	0.00000000000000	0.08714900000000	-50.77989000000000	769.54443700000002	-50.29846500000000	0.14607000000000	0.00000000000000	-0.09253400000000	0.00000000000000	-6.82559500000000	0.00000000000000	0.00000000000000	-21.75383200000000	0.00000000000000	
14.88828000000000	-13.73632700000000	70.06755500000000	-10.61453700000000	0.36143300000000	0.00000000000000	0.08789000000000	-51.49718600000000	766.78124100000002	-50.02326800000000	0.14501500000000	0.00000000000000	-0.09254500000000	0.00000000000000	-7.28650500000000	0.00000000000000	0.00000000000000	-21.71762300000000	0.00000000000000	
14.88994600000000	-13.96788100000000	76.90514400000001	-11.05665600000000	0.36476400000000	0.00000000000000	0.08856600000000	-52.22063400000000	763.92994399999998	-49.73780800000000	0.14396800000000	0.00000000000000	-0.09255400000000	0.00000000000000	-7.66730900000000	0.00000000000000	0.00000000000000	-21.68280700000000	0.00000000000000	
14.89163800000000	-13.97223900000000	83.57441400000000	-11.36489700000000	0.36795500000000	0.00000000000000	0.08918600000000	-52.94969900000000	760.98858900000005	-49.44174000000000	0.14293100000000	0.00000000000000	-0.09255900000000	0.00000000000000	-7.96727700000000	0.00000000000000	0.00000000000000	-21.64928800000000	0.00000000000000	
14.89327600000000	-13.76282700000000	90.07972599999999	-11.54530100000000	0.37102000000000	0.00000000000000	0.08975600000000	-53.68379500000000	757.95513800000003	-49.13470400000000	0.14190500000000	0.00000000000000	-0.09256200000000	0.00000000000000	-8.18939000000000	0.00000000000000	0.00000000000000	-21.61695600000000	0.00000000000000	
14.89494400000000	-13.35945600000000	96.44453400000000	-11.60822100000000	0.37397300000000	0.00000000000000	0.09028200000000	-54.42227900000000	754.82748000000004	-48.81633200000000	0.14089100000000	0.00000000000000	-0.09256100000000	0.00000000000000	-8.33955900000000	0.00000000000000	0.00000000000000	-21.58568700000000	0.00000000000000	
14.89660900000000	-12.78605500000000	102.70657000000000	-11.56692300000000	0.37682400000000	0.00000000000000	0.09076900000000	-55.16445500000000	751.60343399999999	-48.48624800000000	0.13989000000000	0.00000000000000	-0.09255700000000	0.00000000000000	-8.42574300000000	0.00000000000000	0.00000000000000	-21.55534100000000	0.00000000000000	
14.89827500000000	-12.06846600000000	108.91268900000000	-11.43619300000000	0.37958000000000	0.00000000000000	0.09122200000000	-55.90956900000000	748.28075799999999	-48.14406800000000	0.13890400000000	0.00000000000000	-0.09255000000000	0.00000000000000	-8.45705000000000	0.00000000000000	0.00000000000000	-21.52576500000000	0.00000000000000	
14.89994500000000	-11.23245000000000	115.11384800000000	-11.23106800000000	0.38225000000000	0.00000000000000	0.09164400000000	-56.65681600000000	744.85716200000002	-47.78941000000000	0.13793300000000	0.00000000000000	-0.09253800000000	0.00000000000000	-8.44288900000000	0.00000000000000	0.00000000000000	-21.49679000000000	0.00000000000000	
14.90160700000000	-10.30204700000000	121.36060500000001	-10.96575400000000	0.38483900000000	0.00000000000000	0.09203700000000	-57.40533100000000	741.33031100000005	-47.42188800000000	0.13697800000000	0.00000000000000	-0.09252300000000	0.00000000000000	-8.39225000000000	0.00000000000000	0.00000000000000	-21.46823600000000	0.00000000000000	
14.90327700000000	-9.29834600000000	127.69940099999999	-10.65280300000000	0.38735200000000	0.00000000000000	0.09240500000000	-58.15419700000000	737.69783900000004	-47.04112000000000	0.13604100000000	0.00000000000000	-0.09250400000000	0.00000000000000	-8.31312900000000	0.00000000000000	0.00000000000000	-21.43990800000000	0.00000000000000	
14.90494100000000	-8.23868500000000	134.16976399999999	-10.30255500000000	0.38979300000000	0.00000000000000	0.09275000000000	-58.90244300000000	733.95735800000000	-46.64672900000000	0.13512300000000	0.00000000000000	-0.09248000000000	0.00000000000000	-8.21212900000000	0.00000000000000	0.00000000000000	-21.41159700000000	0.00000000000000	
14.90663000000000	-7.13628100000000	140.80250300000000	-9.92284600000000	0.39216600000000	0.00000000000000	0.09307400000000	-59.64904100000000	730.10646699999995	-46.23834700000000	0.13422400000000	0.00000000000000	-0.09245300000000	0.00000000000000	-8.09423800000000	0.00000000000000	0.00000000000000	-21.38308200000000	0.00000000000000	
14.90827600000000	-6.00022600000000	147.61882800000001	-9.51895700000000	0.39447400000000	0.00000000000000	0.09337900000000	-60.39291000000000	726.14276400000006	-45.81561500000000	0.13334600000000	0.00000000000000	-0.09242000000000	0.00000000000000	-7.96276300000000	0.00000000000000	0.00000000000000	-21.35413000000000	0.00000000000000	
14.90994900000000	-4.83579300000000	154.63032600000000	-9.09376000000000	0.39672000000000	0.00000000000000	0.09366600000000	-61.13292000000000	722.06385499999999	-45.37819100000000	0.13248900000000	0.00000000000000	-0.09238300000000	0.00000000000000	-7.81939900000000	0.00000000000000	0.00000000000000	-21.32449700000000	0.00000000000000	
14.91163100000000	-3.64496400000000	161.83960200000001	-8.64802200000000	0.39890400000000	0.00000000000000	0.09393700000000	-61.86788600000000	717.86736800000006	-44.92574900000000	0.13165500000000	0.00000000000000	-0.09234200000000	0.00000000000000	-7.66441900000000	0.00000000000000	0.00000000000000	-21.29392700000000	0.00000000000000	
14.91327500000000	-2.42711200000000	169.24144100000001	-8.18080700000000	0.40102900000000	0.00000000000000	0.09419300000000	-62.59657400000000	713.55096100000003	-44.45798000000000	0.13084300000000	0.00000000000000	-0.09229500000000	0.00000000000000	-7.49692000000000	0.00000000000000	0.00000000000000	-21.26215200000000	0.00000000000000	
